<svg xmlns="http://www.w3.org/2000/svg" viewBox="0 0 48 48" fill="none">
  <!-- Outer hex ring -->
  <path d="M24 2 L42 12 L42 36 L24 46 L6 36 L6 12 Z" fill="#0F172A" stroke="#14B8A6" stroke-width="1.5"/>
  <!-- Inner glow ring -->
  <path d="M24 7 L38 15 L38 33 L24 41 L10 33 L10 15 Z" fill="#0F1E35" stroke="#14B8A6" stroke-width="0.5" opacity="0.6"/>
  <!-- D shape left -->
  <path d="M14 16 L14 32 L20 32 C24.5 32 28 28.5 28 24 C28 19.5 24.5 16 20 16 Z" fill="#14B8A6"/>
  <!-- M shape right -->
  <path d="M29 16 L29 32 M29 16 L33.5 24 L38 16 M38 16 L38 32" stroke="#E2E8F0" stroke-width="2.2" stroke-linecap="round" stroke-linejoin="round"/>
  <!-- Corner nodes -->
  <circle cx="24" cy="2" r="1.5" fill="#14B8A6"/>
  <circle cx="42" cy="12" r="1.5" fill="#14B8A6"/>
  <circle cx="42" cy="36" r="1.5" fill="#14B8A6"/>
  <circle cx="24" cy="46" r="1.5" fill="#14B8A6"/>
  <circle cx="6" cy="36" r="1.5" fill="#14B8A6"/>
  <circle cx="6" cy="12" r="1.5" fill="#14B8A6"/>
</svg>